<mxfile host="Electron" modified="2024-03-29T00:55:49.879Z" agent="Mozilla/5.0 (Windows NT 10.0; Win64; x64) AppleWebKit/537.36 (KHTML, like Gecko) draw.io/24.1.0 Chrome/120.0.6099.109 Electron/28.1.0 Safari/537.36" etag="z38mj3Cbj_yuMmJlkw3o" version="24.1.0" type="device">
  <diagram name="Página-1" id="U2GKF-Z9DKdPZ8wUlSiV">
    <mxGraphModel dx="1420" dy="830" grid="1" gridSize="10" guides="1" tooltips="1" connect="1" arrows="1" fold="1" page="1" pageScale="1" pageWidth="827" pageHeight="1169" background="#CCE5FF" math="0" shadow="0">
      <root>
        <mxCell id="0" />
        <mxCell id="1" parent="0" />
        <mxCell id="7c4u1vqs4MGwzIh9Sk1e-1" value="&lt;p style=&quot;line-height: 90%;&quot;&gt;&lt;b style=&quot;font-size: 15px;&quot;&gt;&lt;font style=&quot;font-size: 15px;&quot; color=&quot;#000000&quot; face=&quot;Comic Sans MS&quot;&gt;8&lt;br&gt;&lt;br&gt;Basado en los 2 ejercicios anteriores, hacer un programa para ingresar por teclado la longitud de los tres lados de un triángulo y luego listar qué tipo de triángulo es: &lt;br&gt;&lt;br&gt;- Equilátero: si los tres lados son iguales.&lt;br&gt;&lt;br&gt;- Isósceles: si dos de los tres lados son iguales.&lt;br&gt;&lt;br&gt;- Escaleno: si los tres lados son distintos entre sí.&lt;/font&gt;&lt;/b&gt;&lt;/p&gt;" style="text;whiteSpace=wrap;html=1;fontFamily=Architects Daughter;fontSource=https%3A%2F%2Ffonts.googleapis.com%2Fcss%3Ffamily%3DArchitects%2BDaughter;" vertex="1" parent="1">
          <mxGeometry x="80" y="10" width="650" height="160" as="geometry" />
        </mxCell>
        <mxCell id="7c4u1vqs4MGwzIh9Sk1e-45" value="" style="group;aspect=fixed;" vertex="1" connectable="0" parent="1">
          <mxGeometry x="130" y="200" width="610" height="590" as="geometry" />
        </mxCell>
        <mxCell id="7c4u1vqs4MGwzIh9Sk1e-2" value="" style="strokeWidth=2;html=1;shape=mxgraph.flowchart.start_2;whiteSpace=wrap;rounded=0;labelBackgroundColor=none;strokeColor=#000000;align=center;verticalAlign=middle;fontFamily=Helvetica;fontSize=12;fontColor=default;fillColor=#d5e8d4;aspect=fixed;" vertex="1" parent="7c4u1vqs4MGwzIh9Sk1e-45">
          <mxGeometry x="200" width="40" height="40" as="geometry" />
        </mxCell>
        <mxCell id="7c4u1vqs4MGwzIh9Sk1e-10" value="" style="group;aspect=fixed;" vertex="1" connectable="0" parent="7c4u1vqs4MGwzIh9Sk1e-45">
          <mxGeometry x="125" y="60" width="190" height="40" as="geometry" />
        </mxCell>
        <mxCell id="7c4u1vqs4MGwzIh9Sk1e-4" value="" style="shape=trapezoid;perimeter=trapezoidPerimeter;whiteSpace=wrap;html=1;fixedSize=1;rounded=0;labelBackgroundColor=none;strokeColor=#121211;strokeWidth=2;align=center;verticalAlign=middle;fontFamily=Helvetica;fontSize=12;fontColor=default;fillColor=#d5e8d4;direction=west;container=0;aspect=fixed;" vertex="1" parent="7c4u1vqs4MGwzIh9Sk1e-10">
          <mxGeometry width="190" height="40" as="geometry">
            <mxRectangle x="-1020" y="-650" width="50" height="40" as="alternateBounds" />
          </mxGeometry>
        </mxCell>
        <mxCell id="7c4u1vqs4MGwzIh9Sk1e-9" value="&lt;b&gt;&lt;font color=&quot;#000000&quot; face=&quot;Comic Sans MS&quot; style=&quot;font-size: 15px;&quot;&gt;lado1, lado2, lado3&lt;/font&gt;&lt;/b&gt;" style="text;strokeColor=none;align=center;fillColor=none;html=1;verticalAlign=middle;whiteSpace=wrap;rounded=0;fontFamily=Architects Daughter;fontSource=https%3A%2F%2Ffonts.googleapis.com%2Fcss%3Ffamily%3DArchitects%2BDaughter;aspect=fixed;container=0;" vertex="1" parent="7c4u1vqs4MGwzIh9Sk1e-10">
          <mxGeometry x="20" y="5" width="150" height="30" as="geometry" />
        </mxCell>
        <mxCell id="7c4u1vqs4MGwzIh9Sk1e-29" value="" style="line;strokeWidth=2;direction=south;html=1;hachureGap=4;fontFamily=Architects Daughter;fontSource=https://fonts.googleapis.com/css?family=Architects+Daughter;strokeColor=#000000;aspect=fixed;" vertex="1" parent="7c4u1vqs4MGwzIh9Sk1e-10">
          <mxGeometry x="90" y="-20" width="10" height="20" as="geometry" />
        </mxCell>
        <mxCell id="7c4u1vqs4MGwzIh9Sk1e-11" value="&lt;b&gt;&lt;font style=&quot;font-size: 17px;&quot; color=&quot;#000000&quot; face=&quot;Comic Sans MS&quot;&gt;I&lt;/font&gt;&lt;/b&gt;" style="text;strokeColor=none;align=center;fillColor=none;html=1;verticalAlign=middle;whiteSpace=wrap;rounded=0;fontFamily=Architects Daughter;fontSource=https%3A%2F%2Ffonts.googleapis.com%2Fcss%3Ffamily%3DArchitects%2BDaughter;aspect=fixed;" vertex="1" parent="7c4u1vqs4MGwzIh9Sk1e-45">
          <mxGeometry x="190" y="5" width="60" height="30" as="geometry" />
        </mxCell>
        <mxCell id="7c4u1vqs4MGwzIh9Sk1e-13" value="" style="group;aspect=fixed;" vertex="1" connectable="0" parent="7c4u1vqs4MGwzIh9Sk1e-45">
          <mxGeometry x="190" y="550" width="60" height="40" as="geometry" />
        </mxCell>
        <mxCell id="7c4u1vqs4MGwzIh9Sk1e-3" value="" style="strokeWidth=2;html=1;shape=mxgraph.flowchart.start_2;whiteSpace=wrap;rounded=0;labelBackgroundColor=none;strokeColor=#000000;align=center;verticalAlign=middle;fontFamily=Helvetica;fontSize=12;fontColor=default;fillColor=#d5e8d4;aspect=fixed;" vertex="1" parent="7c4u1vqs4MGwzIh9Sk1e-13">
          <mxGeometry x="10" width="40" height="40" as="geometry" />
        </mxCell>
        <mxCell id="7c4u1vqs4MGwzIh9Sk1e-12" value="&lt;b&gt;&lt;font style=&quot;font-size: 17px;&quot; color=&quot;#000000&quot; face=&quot;Comic Sans MS&quot;&gt;F&lt;/font&gt;&lt;/b&gt;" style="text;strokeColor=none;align=center;fillColor=none;html=1;verticalAlign=middle;whiteSpace=wrap;rounded=0;fontFamily=Architects Daughter;fontSource=https://fonts.googleapis.com/css?family=Architects+Daughter;aspect=fixed;" vertex="1" parent="7c4u1vqs4MGwzIh9Sk1e-13">
          <mxGeometry y="5" width="60" height="30" as="geometry" />
        </mxCell>
        <mxCell id="7c4u1vqs4MGwzIh9Sk1e-16" value="" style="group;aspect=fixed;" vertex="1" connectable="0" parent="7c4u1vqs4MGwzIh9Sk1e-45">
          <mxGeometry x="140" y="130" width="160" height="140" as="geometry" />
        </mxCell>
        <mxCell id="7c4u1vqs4MGwzIh9Sk1e-7" value="" style="rhombus;whiteSpace=wrap;html=1;rounded=0;labelBackgroundColor=none;strokeColor=#0F140C;strokeWidth=2;align=center;verticalAlign=middle;fontFamily=Helvetica;fontSize=12;fontColor=default;fillColor=#d5e8d4;aspect=fixed;" vertex="1" parent="7c4u1vqs4MGwzIh9Sk1e-16">
          <mxGeometry width="160" height="140" as="geometry" />
        </mxCell>
        <mxCell id="7c4u1vqs4MGwzIh9Sk1e-15" value="&lt;font style=&quot;font-size: 14px;&quot; face=&quot;Comic Sans MS&quot; color=&quot;#000000&quot;&gt;&lt;b style=&quot;&quot;&gt;lado1 == lado2&lt;/b&gt;&lt;/font&gt;&lt;div style=&quot;font-size: 14px;&quot;&gt;&lt;font style=&quot;font-size: 14px;&quot; face=&quot;Comic Sans MS&quot; color=&quot;#000000&quot;&gt;&lt;b&gt;&amp;amp;&amp;amp;&lt;/b&gt;&lt;/font&gt;&lt;/div&gt;&lt;div style=&quot;font-size: 14px;&quot;&gt;&lt;font style=&quot;font-size: 14px;&quot; face=&quot;Comic Sans MS&quot; color=&quot;#000000&quot;&gt;&lt;b&gt;lado2 == num3&lt;/b&gt;&lt;/font&gt;&lt;/div&gt;" style="text;strokeColor=none;align=center;fillColor=none;html=1;verticalAlign=middle;whiteSpace=wrap;rounded=0;fontFamily=Architects Daughter;fontSource=https%3A%2F%2Ffonts.googleapis.com%2Fcss%3Ffamily%3DArchitects%2BDaughter;aspect=fixed;" vertex="1" parent="7c4u1vqs4MGwzIh9Sk1e-16">
          <mxGeometry x="15" y="35" width="130" height="70" as="geometry" />
        </mxCell>
        <mxCell id="7c4u1vqs4MGwzIh9Sk1e-18" value="" style="group;aspect=fixed;" vertex="1" connectable="0" parent="7c4u1vqs4MGwzIh9Sk1e-45">
          <mxGeometry y="250" width="140" height="40" as="geometry" />
        </mxCell>
        <mxCell id="7c4u1vqs4MGwzIh9Sk1e-14" value="" style="shape=trapezoid;perimeter=trapezoidPerimeter;whiteSpace=wrap;html=1;fixedSize=1;rounded=0;labelBackgroundColor=none;strokeColor=#0F140C;strokeWidth=2;align=center;verticalAlign=middle;fontFamily=Helvetica;fontSize=12;fontColor=default;fillColor=#d5e8d4;aspect=fixed;" vertex="1" parent="7c4u1vqs4MGwzIh9Sk1e-18">
          <mxGeometry width="140" height="40" as="geometry" />
        </mxCell>
        <mxCell id="7c4u1vqs4MGwzIh9Sk1e-17" value="&lt;b&gt;&lt;font color=&quot;#000000&quot; style=&quot;font-size: 15px;&quot; face=&quot;Comic Sans MS&quot;&gt;equilatero&lt;/font&gt;&lt;/b&gt;" style="text;strokeColor=none;align=center;fillColor=none;html=1;verticalAlign=middle;whiteSpace=wrap;rounded=0;fontFamily=Architects Daughter;fontSource=https%3A%2F%2Ffonts.googleapis.com%2Fcss%3Ffamily%3DArchitects%2BDaughter;aspect=fixed;" vertex="1" parent="7c4u1vqs4MGwzIh9Sk1e-18">
          <mxGeometry x="15" y="10" width="110" height="20" as="geometry" />
        </mxCell>
        <mxCell id="7c4u1vqs4MGwzIh9Sk1e-20" value="" style="group;aspect=fixed;" vertex="1" connectable="0" parent="7c4u1vqs4MGwzIh9Sk1e-45">
          <mxGeometry x="320" y="250" width="170" height="160" as="geometry" />
        </mxCell>
        <mxCell id="7c4u1vqs4MGwzIh9Sk1e-8" value="" style="rhombus;whiteSpace=wrap;html=1;rounded=0;labelBackgroundColor=none;strokeColor=#0F140C;strokeWidth=2;align=center;verticalAlign=middle;fontFamily=Helvetica;fontSize=12;fontColor=default;fillColor=#d5e8d4;aspect=fixed;" vertex="1" parent="7c4u1vqs4MGwzIh9Sk1e-20">
          <mxGeometry width="170" height="160" as="geometry" />
        </mxCell>
        <mxCell id="7c4u1vqs4MGwzIh9Sk1e-19" value="&lt;b style=&quot;&quot;&gt;&lt;font face=&quot;Comic Sans MS&quot; color=&quot;#000000&quot; style=&quot;font-size: 12px;&quot;&gt;lado1 == lado3&lt;/font&gt;&lt;/b&gt;&lt;div style=&quot;&quot;&gt;&lt;div&gt;&lt;b&gt;&lt;font face=&quot;Comic Sans MS&quot; color=&quot;#000000&quot; style=&quot;font-size: 12px;&quot;&gt;||&lt;/font&gt;&lt;/b&gt;&lt;/div&gt;&lt;/div&gt;&lt;div style=&quot;&quot;&gt;&lt;b&gt;&lt;font face=&quot;Comic Sans MS&quot; color=&quot;#000000&quot; style=&quot;font-size: 12px;&quot;&gt;lado2 == lado3&lt;/font&gt;&lt;/b&gt;&lt;/div&gt;&lt;div style=&quot;&quot;&gt;&lt;b&gt;&lt;font face=&quot;Comic Sans MS&quot; color=&quot;#000000&quot; style=&quot;font-size: 12px;&quot;&gt;||&lt;/font&gt;&lt;/b&gt;&lt;/div&gt;&lt;div style=&quot;&quot;&gt;&lt;b style=&quot;&quot;&gt;&lt;font face=&quot;Comic Sans MS&quot; color=&quot;#000000&quot; style=&quot;font-size: 12px;&quot;&gt;lado1 == lado2&lt;/font&gt;&lt;/b&gt;&lt;/div&gt;" style="text;strokeColor=none;align=center;fillColor=none;html=1;verticalAlign=middle;whiteSpace=wrap;rounded=0;fontFamily=Architects Daughter;fontSource=https%3A%2F%2Ffonts.googleapis.com%2Fcss%3Ffamily%3DArchitects%2BDaughter;aspect=fixed;" vertex="1" parent="7c4u1vqs4MGwzIh9Sk1e-20">
          <mxGeometry x="35" y="45" width="100" height="70" as="geometry" />
        </mxCell>
        <mxCell id="7c4u1vqs4MGwzIh9Sk1e-23" value="" style="group;aspect=fixed;" vertex="1" connectable="0" parent="7c4u1vqs4MGwzIh9Sk1e-45">
          <mxGeometry x="205" y="390" width="140" height="40" as="geometry" />
        </mxCell>
        <mxCell id="7c4u1vqs4MGwzIh9Sk1e-5" value="" style="shape=trapezoid;perimeter=trapezoidPerimeter;whiteSpace=wrap;html=1;fixedSize=1;rounded=0;labelBackgroundColor=none;strokeColor=#0F140C;strokeWidth=2;align=center;verticalAlign=middle;fontFamily=Helvetica;fontSize=12;fontColor=default;fillColor=#d5e8d4;aspect=fixed;" vertex="1" parent="7c4u1vqs4MGwzIh9Sk1e-23">
          <mxGeometry width="140" height="40" as="geometry" />
        </mxCell>
        <mxCell id="7c4u1vqs4MGwzIh9Sk1e-21" value="&lt;font size=&quot;1&quot; face=&quot;Comic Sans MS&quot; color=&quot;#000000&quot;&gt;&lt;b style=&quot;font-size: 15px;&quot;&gt;isosceles&lt;/b&gt;&lt;/font&gt;" style="text;strokeColor=none;align=center;fillColor=none;html=1;verticalAlign=middle;whiteSpace=wrap;rounded=0;fontFamily=Architects Daughter;fontSource=https%3A%2F%2Ffonts.googleapis.com%2Fcss%3Ffamily%3DArchitects%2BDaughter;aspect=fixed;" vertex="1" parent="7c4u1vqs4MGwzIh9Sk1e-23">
          <mxGeometry x="40" y="5" width="60" height="30" as="geometry" />
        </mxCell>
        <mxCell id="7c4u1vqs4MGwzIh9Sk1e-24" value="" style="group;aspect=fixed;" vertex="1" connectable="0" parent="7c4u1vqs4MGwzIh9Sk1e-45">
          <mxGeometry x="470" y="390" width="140" height="40" as="geometry" />
        </mxCell>
        <mxCell id="7c4u1vqs4MGwzIh9Sk1e-6" value="" style="shape=trapezoid;perimeter=trapezoidPerimeter;whiteSpace=wrap;html=1;fixedSize=1;rounded=0;labelBackgroundColor=none;strokeColor=#0F140C;strokeWidth=2;align=center;verticalAlign=middle;fontFamily=Helvetica;fontSize=12;fontColor=default;fillColor=#d5e8d4;aspect=fixed;" vertex="1" parent="7c4u1vqs4MGwzIh9Sk1e-24">
          <mxGeometry width="140" height="40" as="geometry" />
        </mxCell>
        <mxCell id="7c4u1vqs4MGwzIh9Sk1e-22" value="&lt;b&gt;&lt;font color=&quot;#000000&quot; style=&quot;font-size: 15px;&quot; face=&quot;Comic Sans MS&quot;&gt;escaleno&lt;/font&gt;&lt;/b&gt;" style="text;strokeColor=none;align=center;fillColor=none;html=1;verticalAlign=middle;whiteSpace=wrap;rounded=0;fontFamily=Architects Daughter;fontSource=https://fonts.googleapis.com/css?family=Architects+Daughter;aspect=fixed;" vertex="1" parent="7c4u1vqs4MGwzIh9Sk1e-24">
          <mxGeometry x="40" y="5" width="60" height="30" as="geometry" />
        </mxCell>
        <mxCell id="7c4u1vqs4MGwzIh9Sk1e-25" value="" style="line;strokeWidth=2;direction=south;html=1;hachureGap=4;fontFamily=Architects Daughter;fontSource=https://fonts.googleapis.com/css?family=Architects+Daughter;strokeColor=#000000;aspect=fixed;" vertex="1" parent="7c4u1vqs4MGwzIh9Sk1e-45">
          <mxGeometry x="400" y="200" width="10" height="55" as="geometry" />
        </mxCell>
        <mxCell id="7c4u1vqs4MGwzIh9Sk1e-26" value="" style="line;strokeWidth=2;direction=south;html=1;hachureGap=4;fontFamily=Architects Daughter;fontSource=https://fonts.googleapis.com/css?family=Architects+Daughter;strokeColor=#000000;aspect=fixed;" vertex="1" parent="7c4u1vqs4MGwzIh9Sk1e-45">
          <mxGeometry x="267" y="430" width="10" height="30" as="geometry" />
        </mxCell>
        <mxCell id="7c4u1vqs4MGwzIh9Sk1e-27" value="" style="line;strokeWidth=2;direction=south;html=1;hachureGap=4;fontFamily=Architects Daughter;fontSource=https://fonts.googleapis.com/css?family=Architects+Daughter;strokeColor=#000000;aspect=fixed;" vertex="1" parent="7c4u1vqs4MGwzIh9Sk1e-45">
          <mxGeometry x="65" y="200" width="10" height="50" as="geometry" />
        </mxCell>
        <mxCell id="7c4u1vqs4MGwzIh9Sk1e-28" value="" style="line;strokeWidth=2;direction=south;html=1;hachureGap=4;fontFamily=Architects Daughter;fontSource=https://fonts.googleapis.com/css?family=Architects+Daughter;strokeColor=#000000;aspect=fixed;" vertex="1" parent="7c4u1vqs4MGwzIh9Sk1e-45">
          <mxGeometry x="215" y="100" width="10" height="30" as="geometry" />
        </mxCell>
        <mxCell id="7c4u1vqs4MGwzIh9Sk1e-30" value="" style="line;strokeWidth=2;direction=south;html=1;hachureGap=4;fontFamily=Architects Daughter;fontSource=https://fonts.googleapis.com/css?family=Architects+Daughter;strokeColor=#000000;aspect=fixed;" vertex="1" parent="7c4u1vqs4MGwzIh9Sk1e-45">
          <mxGeometry x="267" y="329" width="10" height="61" as="geometry" />
        </mxCell>
        <mxCell id="7c4u1vqs4MGwzIh9Sk1e-31" value="" style="line;strokeWidth=2;direction=south;html=1;hachureGap=4;fontFamily=Architects Daughter;fontSource=https://fonts.googleapis.com/css?family=Architects+Daughter;strokeColor=#000000;aspect=fixed;" vertex="1" parent="7c4u1vqs4MGwzIh9Sk1e-45">
          <mxGeometry x="535" y="430" width="10" height="30" as="geometry" />
        </mxCell>
        <mxCell id="7c4u1vqs4MGwzIh9Sk1e-34" value="" style="line;strokeWidth=2;html=1;perimeter=backbonePerimeter;points=[];outlineConnect=0;hachureGap=4;fontFamily=Architects Daughter;fontSource=https://fonts.googleapis.com/css?family=Architects+Daughter;strokeColor=#000000;aspect=fixed;" vertex="1" parent="7c4u1vqs4MGwzIh9Sk1e-45">
          <mxGeometry x="68" y="506" width="332" height="10" as="geometry" />
        </mxCell>
        <mxCell id="7c4u1vqs4MGwzIh9Sk1e-35" value="" style="line;strokeWidth=2;html=1;perimeter=backbonePerimeter;points=[];outlineConnect=0;hachureGap=4;fontFamily=Architects Daughter;fontSource=https://fonts.googleapis.com/css?family=Architects+Daughter;strokeColor=#000000;aspect=fixed;" vertex="1" parent="7c4u1vqs4MGwzIh9Sk1e-45">
          <mxGeometry x="298" y="195" width="110" height="10" as="geometry" />
        </mxCell>
        <mxCell id="7c4u1vqs4MGwzIh9Sk1e-36" value="" style="line;strokeWidth=2;html=1;perimeter=backbonePerimeter;points=[];outlineConnect=0;hachureGap=4;fontFamily=Architects Daughter;fontSource=https://fonts.googleapis.com/css?family=Architects+Daughter;strokeColor=#000000;aspect=fixed;" vertex="1" parent="7c4u1vqs4MGwzIh9Sk1e-45">
          <mxGeometry x="269" y="456" width="271" height="10" as="geometry" />
        </mxCell>
        <mxCell id="7c4u1vqs4MGwzIh9Sk1e-37" value="" style="line;strokeWidth=2;html=1;perimeter=backbonePerimeter;points=[];outlineConnect=0;hachureGap=4;fontFamily=Architects Daughter;fontSource=https://fonts.googleapis.com/css?family=Architects+Daughter;strokeColor=#000000;aspect=fixed;" vertex="1" parent="7c4u1vqs4MGwzIh9Sk1e-45">
          <mxGeometry x="490" y="326" width="50" height="10" as="geometry" />
        </mxCell>
        <mxCell id="7c4u1vqs4MGwzIh9Sk1e-38" value="" style="line;strokeWidth=2;html=1;perimeter=backbonePerimeter;points=[];outlineConnect=0;hachureGap=4;fontFamily=Architects Daughter;fontSource=https://fonts.googleapis.com/css?family=Architects+Daughter;strokeColor=#000000;aspect=fixed;" vertex="1" parent="7c4u1vqs4MGwzIh9Sk1e-45">
          <mxGeometry x="270" y="326" width="50" height="10" as="geometry" />
        </mxCell>
        <mxCell id="7c4u1vqs4MGwzIh9Sk1e-39" value="" style="line;strokeWidth=2;html=1;perimeter=backbonePerimeter;points=[];outlineConnect=0;hachureGap=4;fontFamily=Architects Daughter;fontSource=https://fonts.googleapis.com/css?family=Architects+Daughter;strokeColor=#000000;aspect=fixed;" vertex="1" parent="7c4u1vqs4MGwzIh9Sk1e-45">
          <mxGeometry x="70" y="195" width="70" height="10" as="geometry" />
        </mxCell>
        <mxCell id="7c4u1vqs4MGwzIh9Sk1e-40" value="" style="line;strokeWidth=2;direction=south;html=1;hachureGap=4;fontFamily=Architects Daughter;fontSource=https://fonts.googleapis.com/css?family=Architects+Daughter;strokeColor=#000000;aspect=fixed;" vertex="1" parent="7c4u1vqs4MGwzIh9Sk1e-45">
          <mxGeometry x="398" y="460" width="10" height="50" as="geometry" />
        </mxCell>
        <mxCell id="7c4u1vqs4MGwzIh9Sk1e-41" value="" style="line;strokeWidth=2;direction=south;html=1;hachureGap=4;fontFamily=Architects Daughter;fontSource=https://fonts.googleapis.com/css?family=Architects+Daughter;strokeColor=#000000;aspect=fixed;" vertex="1" parent="7c4u1vqs4MGwzIh9Sk1e-45">
          <mxGeometry x="215" y="510" width="10" height="40" as="geometry" />
        </mxCell>
        <mxCell id="7c4u1vqs4MGwzIh9Sk1e-42" value="" style="line;strokeWidth=2;direction=south;html=1;hachureGap=4;fontFamily=Architects Daughter;fontSource=https://fonts.googleapis.com/css?family=Architects+Daughter;strokeColor=#000000;aspect=fixed;" vertex="1" parent="7c4u1vqs4MGwzIh9Sk1e-45">
          <mxGeometry x="535" y="329" width="10" height="61" as="geometry" />
        </mxCell>
        <mxCell id="7c4u1vqs4MGwzIh9Sk1e-43" value="" style="line;strokeWidth=2;direction=south;html=1;hachureGap=4;fontFamily=Architects Daughter;fontSource=https://fonts.googleapis.com/css?family=Architects+Daughter;strokeColor=#000000;aspect=fixed;" vertex="1" parent="7c4u1vqs4MGwzIh9Sk1e-45">
          <mxGeometry x="65" y="290" width="10" height="220" as="geometry" />
        </mxCell>
        <mxCell id="7c4u1vqs4MGwzIh9Sk1e-49" value="&lt;font face=&quot;Comic Sans MS&quot; color=&quot;#000000&quot;&gt;&lt;span style=&quot;font-size: 15px;&quot;&gt;&lt;b&gt;F&lt;/b&gt;&lt;/span&gt;&lt;/font&gt;" style="text;strokeColor=none;align=center;fillColor=none;html=1;verticalAlign=middle;whiteSpace=wrap;rounded=0;fontFamily=Architects Daughter;fontSource=https://fonts.googleapis.com/css?family=Architects+Daughter;aspect=fixed;" vertex="1" parent="7c4u1vqs4MGwzIh9Sk1e-45">
          <mxGeometry x="500" y="296" width="60" height="30" as="geometry" />
        </mxCell>
        <mxCell id="7c4u1vqs4MGwzIh9Sk1e-46" value="&lt;b&gt;&lt;font face=&quot;Comic Sans MS&quot; color=&quot;#000000&quot; style=&quot;font-size: 15px;&quot;&gt;V&lt;/font&gt;&lt;/b&gt;" style="text;strokeColor=none;align=center;fillColor=none;html=1;verticalAlign=middle;whiteSpace=wrap;rounded=0;fontFamily=Architects Daughter;fontSource=https%3A%2F%2Ffonts.googleapis.com%2Fcss%3Ffamily%3DArchitects%2BDaughter;aspect=fixed;" vertex="1" parent="7c4u1vqs4MGwzIh9Sk1e-45">
          <mxGeometry x="242" y="299" width="60" height="30" as="geometry" />
        </mxCell>
        <mxCell id="7c4u1vqs4MGwzIh9Sk1e-48" value="&lt;b&gt;&lt;font face=&quot;Comic Sans MS&quot; color=&quot;#000000&quot; style=&quot;font-size: 15px;&quot;&gt;V&lt;/font&gt;&lt;/b&gt;" style="text;strokeColor=none;align=center;fillColor=none;html=1;verticalAlign=middle;whiteSpace=wrap;rounded=0;fontFamily=Architects Daughter;fontSource=https://fonts.googleapis.com/css?family=Architects+Daughter;aspect=fixed;" vertex="1" parent="7c4u1vqs4MGwzIh9Sk1e-45">
          <mxGeometry x="40" y="165" width="60" height="30" as="geometry" />
        </mxCell>
        <mxCell id="7c4u1vqs4MGwzIh9Sk1e-47" value="&lt;font face=&quot;Comic Sans MS&quot; color=&quot;#000000&quot;&gt;&lt;span style=&quot;font-size: 15px;&quot;&gt;&lt;b&gt;F&lt;/b&gt;&lt;/span&gt;&lt;/font&gt;" style="text;strokeColor=none;align=center;fillColor=none;html=1;verticalAlign=middle;whiteSpace=wrap;rounded=0;fontFamily=Architects Daughter;fontSource=https://fonts.googleapis.com/css?family=Architects+Daughter;aspect=fixed;" vertex="1" parent="7c4u1vqs4MGwzIh9Sk1e-45">
          <mxGeometry x="373" y="170" width="60" height="30" as="geometry" />
        </mxCell>
      </root>
    </mxGraphModel>
  </diagram>
</mxfile>
